# xmcd
#
# Track frame offsets:
#	150
#	18043
#	49154
#	63203
#	78553
#	88613
#	104588
#	114562
#	138642
#	153960
#	169633
#	185655
#	208534
#
# Disc length: 3577 seconds
#
# Revision: 1
# Processed by: cddbd v1.5.2PL0 Copyright (c) Steve Scherf et al.
# Submitted via: audiograbber 1.80
#
DISCID=a90df70d
DTITLE=Amy Winehouse - Frank
DYEAR=1900
DGENRE=
TTITLE0=Stronger Than Me (Intro)
TTITLE1=You Sent Flying
TTITLE2=Know You Now
TTITLE3=Fuck Me Pumps
TTITLE4=I Heard Love Is Blind
TTITLE5=Moody´s Mood For Love
TTITLE6=(There Is) No Greater Lover
TTITLE7=In My Bed
TTITLE8=Take The Box
TTITLE9=October Song
TTITLE10=What It Is About Men
TTITLE11=Help Your Self
TTITLE12=Amy Amy Amy (Outro)
EXTD=
EXTT0=
EXTT1=
EXTT2=
EXTT3=
EXTT4=
EXTT5=
EXTT6=
EXTT7=
EXTT8=
EXTT9=
EXTT10=
EXTT11=
EXTT12=
PLAYORDER=
